<mxfile host="app.diagrams.net" agent="Mozilla/5.0 (Windows NT 10.0; Win64; x64) AppleWebKit/537.36 (KHTML, like Gecko) Chrome/135.0.0.0 Safari/537.36" version="26.2.14">
  <diagram name="Страница — 1" id="nsNNjkAgevZEgpbt96-L">
    <mxGraphModel dx="983" dy="512" grid="1" gridSize="10" guides="1" tooltips="1" connect="1" arrows="1" fold="1" page="1" pageScale="1" pageWidth="827" pageHeight="1169" background="#ffffff" math="0" shadow="0">
      <root>
        <mxCell id="0" />
        <mxCell id="1" parent="0" />
        <mxCell id="qhUZr_G4V8HkjCh5H9F5-5" style="edgeStyle=orthogonalEdgeStyle;curved=1;rounded=0;orthogonalLoop=1;jettySize=auto;html=1;exitX=1;exitY=0.5;exitDx=0;exitDy=0;entryX=0;entryY=0.5;entryDx=0;entryDy=0;" edge="1" parent="1" source="qhUZr_G4V8HkjCh5H9F5-1" target="qhUZr_G4V8HkjCh5H9F5-2">
          <mxGeometry relative="1" as="geometry" />
        </mxCell>
        <mxCell id="qhUZr_G4V8HkjCh5H9F5-1" value="" style="ellipse;whiteSpace=wrap;html=1;aspect=fixed;fillColor=#000000;" vertex="1" parent="1">
          <mxGeometry x="200" y="840" width="40" height="40" as="geometry" />
        </mxCell>
        <mxCell id="qhUZr_G4V8HkjCh5H9F5-7" style="edgeStyle=orthogonalEdgeStyle;curved=1;rounded=0;orthogonalLoop=1;jettySize=auto;html=1;exitX=0.75;exitY=0;exitDx=0;exitDy=0;entryX=0;entryY=0.5;entryDx=0;entryDy=0;" edge="1" parent="1" source="qhUZr_G4V8HkjCh5H9F5-2" target="qhUZr_G4V8HkjCh5H9F5-3">
          <mxGeometry relative="1" as="geometry">
            <mxPoint x="490" y="750" as="targetPoint" />
          </mxGeometry>
        </mxCell>
        <mxCell id="qhUZr_G4V8HkjCh5H9F5-8" value="Вызов на этаж&lt;div&gt;&lt;span style=&quot;background-color: light-dark(#ffffff, var(--ge-dark-color, #121212)); color: light-dark(rgb(0, 0, 0), rgb(255, 255, 255));&quot;&gt;[случ. число &amp;lt; Шанс неисправности]&lt;/span&gt;&lt;/div&gt;" style="edgeLabel;html=1;align=center;verticalAlign=middle;resizable=0;points=[];" vertex="1" connectable="0" parent="qhUZr_G4V8HkjCh5H9F5-7">
          <mxGeometry x="0.358" y="-24" relative="1" as="geometry">
            <mxPoint x="-75" y="-24" as="offset" />
          </mxGeometry>
        </mxCell>
        <mxCell id="qhUZr_G4V8HkjCh5H9F5-11" style="edgeStyle=orthogonalEdgeStyle;curved=1;rounded=0;orthogonalLoop=1;jettySize=auto;html=1;exitX=0.75;exitY=1;exitDx=0;exitDy=0;entryX=0;entryY=0.75;entryDx=0;entryDy=0;" edge="1" parent="1" source="qhUZr_G4V8HkjCh5H9F5-2" target="qhUZr_G4V8HkjCh5H9F5-6">
          <mxGeometry relative="1" as="geometry" />
        </mxCell>
        <mxCell id="qhUZr_G4V8HkjCh5H9F5-12" value="Загрузка&lt;div&gt;[Текущ. вес &amp;gt; Макс. вес]&lt;/div&gt;" style="edgeLabel;html=1;align=center;verticalAlign=middle;resizable=0;points=[];" vertex="1" connectable="0" parent="qhUZr_G4V8HkjCh5H9F5-11">
          <mxGeometry x="-0.5218" y="16" relative="1" as="geometry">
            <mxPoint x="-21" y="33" as="offset" />
          </mxGeometry>
        </mxCell>
        <mxCell id="qhUZr_G4V8HkjCh5H9F5-2" value="Waiting" style="rounded=1;whiteSpace=wrap;html=1;rotation=0;arcSize=50;" vertex="1" parent="1">
          <mxGeometry x="280" y="840" width="100" height="40" as="geometry" />
        </mxCell>
        <mxCell id="qhUZr_G4V8HkjCh5H9F5-3" value="Disabled" style="rounded=1;whiteSpace=wrap;html=1;rotation=0;arcSize=50;" vertex="1" parent="1">
          <mxGeometry x="480" y="680" width="100" height="40" as="geometry" />
        </mxCell>
        <mxCell id="qhUZr_G4V8HkjCh5H9F5-13" style="edgeStyle=orthogonalEdgeStyle;curved=1;rounded=0;orthogonalLoop=1;jettySize=auto;html=1;exitX=0.75;exitY=0;exitDx=0;exitDy=0;entryX=0.936;entryY=0.872;entryDx=0;entryDy=0;entryPerimeter=0;" edge="1" parent="1" source="qhUZr_G4V8HkjCh5H9F5-6" target="qhUZr_G4V8HkjCh5H9F5-2">
          <mxGeometry relative="1" as="geometry" />
        </mxCell>
        <mxCell id="qhUZr_G4V8HkjCh5H9F5-14" value="Выгрузка [Текущ. вес &amp;lt;= Макс. вес ]&amp;nbsp;" style="edgeLabel;html=1;align=center;verticalAlign=middle;resizable=0;points=[];" vertex="1" connectable="0" parent="qhUZr_G4V8HkjCh5H9F5-13">
          <mxGeometry x="0.2625" y="4" relative="1" as="geometry">
            <mxPoint x="83" y="-14" as="offset" />
          </mxGeometry>
        </mxCell>
        <mxCell id="qhUZr_G4V8HkjCh5H9F5-6" value="Overloaded" style="rounded=1;whiteSpace=wrap;html=1;rotation=0;arcSize=50;" vertex="1" parent="1">
          <mxGeometry x="480" y="920" width="100" height="40" as="geometry" />
        </mxCell>
        <mxCell id="qhUZr_G4V8HkjCh5H9F5-15" style="edgeStyle=orthogonalEdgeStyle;curved=1;rounded=0;orthogonalLoop=1;jettySize=auto;html=1;exitX=0.75;exitY=1;exitDx=0;exitDy=0;entryX=0.929;entryY=0.097;entryDx=0;entryDy=0;entryPerimeter=0;" edge="1" parent="1" source="qhUZr_G4V8HkjCh5H9F5-3" target="qhUZr_G4V8HkjCh5H9F5-2">
          <mxGeometry relative="1" as="geometry" />
        </mxCell>
        <mxCell id="qhUZr_G4V8HkjCh5H9F5-16" value="Восстановление питания" style="edgeLabel;html=1;align=center;verticalAlign=middle;resizable=0;points=[];" vertex="1" connectable="0" parent="qhUZr_G4V8HkjCh5H9F5-15">
          <mxGeometry x="-0.3413" y="-6" relative="1" as="geometry">
            <mxPoint x="-4" y="16" as="offset" />
          </mxGeometry>
        </mxCell>
      </root>
    </mxGraphModel>
  </diagram>
</mxfile>
